<mxfile host="app.diagrams.net" modified="2022-08-08T11:55:01.807Z" agent="5.0 (Windows NT 10.0; Win64; x64) AppleWebKit/537.36 (KHTML, like Gecko) Chrome/104.0.5112.81 Safari/537.36 Edg/104.0.1293.47" etag="dAL6i3iTmufGMlg6tn4P" version="20.2.3" type="github">
  <diagram id="0Gi7k2H3K9yGx6-CRsK0" name="第 1 页">
    <mxGraphModel dx="1008" dy="624" grid="1" gridSize="10" guides="1" tooltips="1" connect="1" arrows="1" fold="1" page="0" pageScale="1" pageWidth="1200" pageHeight="1920" math="0" shadow="0">
      <root>
        <mxCell id="0" />
        <mxCell id="1" parent="0" />
        <mxCell id="M2KwWTT17FDbJII6S5ux-3" value="" style="rounded=1;whiteSpace=wrap;html=1;fillColor=none;" vertex="1" parent="1">
          <mxGeometry x="507" y="240" width="200" height="240" as="geometry" />
        </mxCell>
        <mxCell id="M2KwWTT17FDbJII6S5ux-1" value="" style="rounded=1;whiteSpace=wrap;html=1;fillColor=none;" vertex="1" parent="1">
          <mxGeometry x="184" y="240" width="200" height="360" as="geometry" />
        </mxCell>
        <mxCell id="M2KwWTT17FDbJII6S5ux-5" value="" style="endArrow=none;dashed=1;html=1;rounded=0;" edge="1" parent="1">
          <mxGeometry width="50" height="50" relative="1" as="geometry">
            <mxPoint x="100" y="360" as="sourcePoint" />
            <mxPoint x="790" y="360" as="targetPoint" />
          </mxGeometry>
        </mxCell>
        <mxCell id="M2KwWTT17FDbJII6S5ux-6" value="" style="endArrow=none;dashed=1;html=1;rounded=0;" edge="1" parent="1">
          <mxGeometry width="50" height="50" relative="1" as="geometry">
            <mxPoint x="100" y="480" as="sourcePoint" />
            <mxPoint x="790" y="480" as="targetPoint" />
          </mxGeometry>
        </mxCell>
        <mxCell id="M2KwWTT17FDbJII6S5ux-7" value="EL0" style="text;html=1;strokeColor=none;fillColor=none;align=center;verticalAlign=middle;whiteSpace=wrap;rounded=0;" vertex="1" parent="1">
          <mxGeometry x="100" y="330" width="60" height="30" as="geometry" />
        </mxCell>
        <mxCell id="M2KwWTT17FDbJII6S5ux-8" value="EL1" style="text;html=1;strokeColor=none;fillColor=none;align=center;verticalAlign=middle;whiteSpace=wrap;rounded=0;" vertex="1" parent="1">
          <mxGeometry x="100" y="450" width="60" height="30" as="geometry" />
        </mxCell>
        <mxCell id="M2KwWTT17FDbJII6S5ux-9" value="EL2" style="text;html=1;strokeColor=none;fillColor=none;align=center;verticalAlign=middle;whiteSpace=wrap;rounded=0;" vertex="1" parent="1">
          <mxGeometry x="100" y="570" width="60" height="30" as="geometry" />
        </mxCell>
        <mxCell id="M2KwWTT17FDbJII6S5ux-10" value="KVM Low Visor" style="rounded=0;whiteSpace=wrap;html=1;fillColor=none;" vertex="1" parent="1">
          <mxGeometry x="217" y="520" width="134" height="40" as="geometry" />
        </mxCell>
        <mxCell id="M2KwWTT17FDbJII6S5ux-11" value="Kernel" style="rounded=1;whiteSpace=wrap;html=1;fillColor=none;" vertex="1" parent="1">
          <mxGeometry x="550" y="390" width="120" height="60" as="geometry" />
        </mxCell>
        <mxCell id="M2KwWTT17FDbJII6S5ux-12" value="" style="rounded=1;whiteSpace=wrap;html=1;fillColor=none;" vertex="1" parent="1">
          <mxGeometry x="209" y="385" width="150" height="70" as="geometry" />
        </mxCell>
        <mxCell id="M2KwWTT17FDbJII6S5ux-13" value="KVM" style="whiteSpace=wrap;html=1;aspect=fixed;fillColor=none;" vertex="1" parent="1">
          <mxGeometry x="297" y="393" width="54" height="54" as="geometry" />
        </mxCell>
        <mxCell id="M2KwWTT17FDbJII6S5ux-14" value="Kernel" style="text;html=1;strokeColor=none;fillColor=none;align=center;verticalAlign=middle;whiteSpace=wrap;rounded=0;" vertex="1" parent="1">
          <mxGeometry x="220" y="405" width="60" height="30" as="geometry" />
        </mxCell>
        <mxCell id="M2KwWTT17FDbJII6S5ux-15" value="App" style="rounded=1;whiteSpace=wrap;html=1;fillColor=none;" vertex="1" parent="1">
          <mxGeometry x="209" y="280" width="60" height="60" as="geometry" />
        </mxCell>
        <mxCell id="M2KwWTT17FDbJII6S5ux-16" value="App" style="rounded=1;whiteSpace=wrap;html=1;fillColor=none;" vertex="1" parent="1">
          <mxGeometry x="299" y="280" width="60" height="60" as="geometry" />
        </mxCell>
        <mxCell id="M2KwWTT17FDbJII6S5ux-17" value="App" style="rounded=1;whiteSpace=wrap;html=1;fillColor=none;" vertex="1" parent="1">
          <mxGeometry x="557.5" y="290" width="40" height="40" as="geometry" />
        </mxCell>
        <mxCell id="M2KwWTT17FDbJII6S5ux-18" value="App" style="rounded=1;whiteSpace=wrap;html=1;fillColor=none;" vertex="1" parent="1">
          <mxGeometry x="622.5" y="290" width="40" height="40" as="geometry" />
        </mxCell>
        <mxCell id="M2KwWTT17FDbJII6S5ux-19" value="&lt;font style=&quot;font-size: 18px;&quot;&gt;Host&lt;/font&gt;" style="text;html=1;strokeColor=none;fillColor=none;align=center;verticalAlign=middle;whiteSpace=wrap;rounded=0;rotation=0;" vertex="1" parent="1">
          <mxGeometry x="241" y="190" width="86" height="40" as="geometry" />
        </mxCell>
        <mxCell id="M2KwWTT17FDbJII6S5ux-20" value="&lt;font style=&quot;font-size: 18px;&quot;&gt;VM&lt;/font&gt;" style="text;html=1;strokeColor=none;fillColor=none;align=center;verticalAlign=middle;whiteSpace=wrap;rounded=0;rotation=0;" vertex="1" parent="1">
          <mxGeometry x="567" y="190" width="86" height="40" as="geometry" />
        </mxCell>
      </root>
    </mxGraphModel>
  </diagram>
</mxfile>
